# xmcd
#
# Track frame offsets:
#	150
#	8240
#	29200
#	46259
#	74210
#	88412
#	109126
#	125062
#	146882
#	166231
#	191199
#	210695
#	228802
#	249577
#
# Disc length: 3593 seconds
#
# Revision: 0
# Processed by: cddbd v1.5.2PL0 Copyright (c) Steve Scherf et al.
# Submitted via: EZCDAudioConverter 2.0.7.1
#
DISCID=db0e070e
DTITLE=Ibrahim Keita and Nankama - Yankady
DYEAR=2011
DGENRE=Trad
TTITLE0=Mande Djelyden
TTITLE1=Barala
TTITLE2=Yankady
TTITLE3=Kouma Kouma
TTITLE4=Mama Africa
TTITLE5=Djombaya
TTITLE6=Biiga
TTITLE7=Bésina
TTITLE8=Rock à Ouaga
TTITLE9=Anouzo
TTITLE10=Wazomawé
TTITLE11=Tery Gnouma
TTITLE12=Sarakabo
TTITLE13=Sebe Allhaye
EXTD=
EXTT0=
EXTT1=
EXTT2=
EXTT3=
EXTT4=
EXTT5=
EXTT6=
EXTT7=
EXTT8=
EXTT9=
EXTT10=
EXTT11=
EXTT12=
EXTT13=
PLAYORDER=
